<?xml version="1.0" encoding="UTF-8" standalone="no"?>
<!DOCTYPE svg PUBLIC "-//W3C//DTD SVG 1.1//EN" "http://www.w3.org/Graphics/SVG/1.1/DTD/svg11.dtd">
<svg width="100%" height="100%" viewBox="0 0 39 39" version="1.1" xmlns="http://www.w3.org/2000/svg" xmlns:xlink="http://www.w3.org/1999/xlink" xml:space="preserve" xmlns:serif="http://www.serif.com/" style="fill-rule:evenodd;clip-rule:evenodd;stroke-linejoin:round;stroke-miterlimit:2;">
    <g>
        <clipPath id="_clip1">
            <rect x="0" y="0" width="39" height="39"/>
        </clipPath>
        <g clip-path="url(#_clip1)">
            <circle cx="19.5" cy="19.5" r="19.5" style="fill:rgb(250,213,213);"/>
            <path d="M19.5,0C22.993,0 26.422,0.938 29.428,2.717C32.435,4.495 34.908,7.048 36.59,10.11C38.272,13.171 39.101,16.628 38.99,20.119C38.879,23.61 37.833,27.008 35.96,29.956C34.087,32.905 31.456,35.296 28.343,36.88C25.23,38.464 21.748,39.182 18.262,38.961C14.776,38.739 11.414,37.585 8.527,35.619C5.639,33.654 3.333,30.949 1.848,27.787L4.525,26.53C5.785,29.212 7.741,31.507 10.191,33.175C12.64,34.842 15.493,35.821 18.45,36.009C21.407,36.198 24.361,35.588 27.002,34.244C29.643,32.9 31.875,30.872 33.463,28.37C35.052,25.869 35.94,22.987 36.034,20.025C36.129,17.064 35.425,14.131 33.998,11.534C32.571,8.937 30.473,6.771 27.923,5.262C25.372,3.753 22.463,2.957 19.5,2.957L19.5,0Z" style="fill:rgb(240,81,80);fill-rule:nonzero;"/>
            <circle cx="19.5" cy="19.5" r="17.5" style="fill:white;"/>
            <g>
                <g transform="matrix(1,0,0,1.9091,0,-26.3639)">
                    <path d="M11,20.048C11,19.495 11.448,19.048 12,19.048L14.524,19.048C15.076,19.048 15.524,19.495 15.524,20.048L15.524,29L14,29C12.343,29 11,27.657 11,26L11,20.048Z" style="fill:rgb(203,88,87);fill-rule:nonzero;"/>
                </g>
                <path d="M17.333,15.524C17.333,14.972 17.781,14.524 18.333,14.524L20.857,14.524C21.41,14.524 21.857,14.972 21.857,15.524L21.857,29L17.333,29L17.333,15.524Z" style="fill:rgb(203,88,87);fill-rule:nonzero;"/>
                <g transform="matrix(1,0,0,0.523805,0,13.8096)">
                    <path d="M23.667,11C23.667,10.448 24.114,10 24.667,10L27.191,10C27.743,10 28.191,10.448 28.191,11L28.191,26C28.191,27.657 26.847,29 25.191,29L23.667,29L23.667,11Z" style="fill:rgb(203,88,87);fill-rule:nonzero;"/>
                </g>
            </g>
        </g>
    </g>
</svg>
